<svg width="45" height="45" viewBox="0 0 45 45" fill="none" xmlns="http://www.w3.org/2000/svg">
<g id="catppuccin:folder-examples" clip-path="url(#clip0_1_316)">
<g id="Group">
<path id="Vector" d="M12.875 12.7998H33.5C34.594 12.7998 35.6432 13.2344 36.4168 14.008C37.1904 14.7816 37.625 15.8308 37.625 16.9248V18.2998M17 37.5498H6C4.90598 37.5498 3.85677 37.1152 3.08318 36.3416C2.3096 35.568 1.875 34.5188 1.875 33.4248V10.0498C1.875 9.32046 2.16473 8.62099 2.68046 8.10526C3.19618 7.58954 3.89565 7.2998 4.625 7.2998H18.375C19.1043 7.2998 19.8038 7.58954 20.3195 8.10526C20.8353 8.62099 21.125 9.32046 21.125 10.0498V12.7998" stroke="#CAD3F5" stroke-width="2.75" stroke-linecap="round" stroke-linejoin="round"/>
<path id="Vector_2" d="M29.3805 37.4288H34.8695M32.125 21.0498C27.4995 21.0498 23.875 24.5121 23.875 28.7663C23.875 31.9701 25.5882 33.4963 26.9412 34.6128C27.8102 35.3306 29.3805 35.7623 29.3805 36.2958V37.4618C29.364 38.1438 29.3695 38.8506 29.3695 39.5408C29.3695 41.6391 30.2825 43.0498 32.1525 43.0498C34.0225 43.0498 34.8805 41.6391 34.8805 39.5408C34.8805 38.8533 34.8833 38.1191 34.8695 37.4618V36.2958C34.8695 35.4846 36.5085 34.9951 37.5012 34.1976C38.8432 33.1168 40.375 31.7776 40.375 28.7663C40.375 24.5121 36.7505 21.0498 32.125 21.0498Z" stroke="#EED49F" stroke-width="2.75" stroke-linecap="round" stroke-linejoin="round"/>
</g>
</g>
<defs>
<clipPath id="clip0_1_316">
<rect width="44" height="44" fill="white" transform="translate(0.5 0.424805)"/>
</clipPath>
</defs>
</svg>
