<svg width="45" height="45" viewBox="0 0 45 45" fill="none" xmlns="http://www.w3.org/2000/svg">
<g id="emojione-v1:laptop-computer" clip-path="url(#clip0_1_298)">
<path id="Vector" d="M27.703 33.0123H17.1725C17.418 33.0123 17.616 35.4261 17.616 38.3996C17.616 41.3751 17.4187 43.7889 17.1725 43.7889H27.703C27.4582 43.7889 27.2595 41.3751 27.2595 38.3996C27.2609 35.4261 27.4582 33.0123 27.703 33.0123Z" fill="#BFBEBE"/>
<path id="Vector_2" d="M20.8603 33.0123H17.1732C17.4187 33.0123 17.6167 35.4261 17.6167 38.3996C17.6167 41.3751 17.4194 43.7889 17.1732 43.7889H20.8603C21.1057 43.7889 21.3037 41.3751 21.3037 38.3996C21.3037 35.4261 21.1057 33.0123 20.8603 33.0123Z" fill="#AEAEAE"/>
<path id="Vector_3" d="M44.3515 32.9504C44.3515 35.7327 42.2546 37.987 39.6724 37.987H5.20801C2.62301 37.987 0.526825 35.7327 0.526825 32.9504V7.4304C0.526825 4.6529 2.62301 2.39722 5.20801 2.39722H39.6724C42.2546 2.39722 44.3515 4.65084 44.3515 7.4304V32.9504Z" fill="#D1D2D2"/>
<path id="Vector_4" d="M9.38936 32.9504V7.4304C9.38936 4.6529 11.4855 2.39722 14.0699 2.39722H5.20524C2.62024 2.39722 0.524048 4.65084 0.524048 7.4304V32.9504C0.524048 35.7327 2.62024 37.987 5.20524 37.987H14.0699C11.4855 37.987 9.38936 35.732 9.38936 32.9497" fill="#C6C5C5"/>
<g id="Group">
<path id="Vector_5" d="M44.3512 25.8218C44.3512 28.5993 42.2543 30.8543 39.6721 30.8543H5.20768C2.62268 30.8543 0.526489 28.6014 0.526489 25.8218V7.41191C0.526489 4.6296 2.62268 2.37598 5.20768 2.37598H39.6721C42.2543 2.37598 44.3512 4.6296 44.3512 7.41191V25.8218Z" fill="#243438"/>
<path id="Vector_6" d="M0.52475 24.5217H44.3522V32.3365H0.52475V24.5217Z" fill="#243438"/>
</g>
<path id="Vector_7" d="M40.8906 4.71753H3.98495C3.68038 4.71753 3.4267 4.88597 3.4267 5.08878V29.0763C3.4267 29.2798 3.68038 29.4476 3.98495 29.4476H40.8906C41.0563 29.4476 41.1821 29.4125 41.2736 29.3507L41.2873 29.3369C41.2873 29.3369 41.2983 29.3287 41.3011 29.3211C41.3463 29.2979 41.3845 29.2629 41.4115 29.2198C41.4384 29.1768 41.4533 29.1272 41.4544 29.0763V5.09359C41.4516 4.89078 41.1952 4.72234 40.8906 4.72234" fill="#58C5E8"/>
<path id="Vector_8" d="M22.9799 20.7466C29.1509 24.444 35.1796 26.9616 41.4516 28.4844V5.08878C41.4516 4.88597 41.1952 4.71753 40.8906 4.71753H7.02438C10.5031 11.2728 16.4899 16.8588 22.9813 20.7466M23.0294 24.6729C15.5838 20.6173 8.1292 14.9998 3.4267 8.0629V29.0757C3.4267 29.2792 3.68038 29.4469 3.98495 29.4469H34.1064C30.4269 28.261 26.7577 26.7065 23.0308 24.6757" fill="#28A6DE"/>
<path id="Vector_9" d="M30.5582 43.5496C30.5582 44.0323 30.3258 44.4248 30.0405 44.4248H14.8399C14.5518 44.4248 14.3194 44.0323 14.3194 43.5496C14.3194 43.0663 14.5518 42.6744 14.8399 42.6744H30.0405C30.3258 42.6724 30.5582 43.0656 30.5582 43.5496Z" fill="#D1D2D2"/>
<path id="Vector_10" d="M19.7067 43.5496C19.7067 43.0663 19.9391 42.6744 20.2244 42.6744H14.6384C14.3524 42.6744 14.1208 43.0663 14.1208 43.5496C14.1208 44.0323 14.3531 44.4248 14.6384 44.4248H20.2244C19.9391 44.4248 19.7067 44.0323 19.7067 43.5496Z" fill="#C6C5C5"/>
<path id="Vector_11" d="M24.1019 33.8476C24.0345 33.783 23.9362 33.7644 23.8021 33.8029L23.03 34.0002C22.789 34.0648 22.6682 34.2248 22.6677 34.4801L22.665 35.3058C22.665 35.4254 22.6918 35.5141 22.7454 35.565C22.7682 35.5866 22.7951 35.6034 22.8245 35.6144C22.8539 35.6253 22.8852 35.6303 22.9166 35.6289C22.9579 35.6289 22.9964 35.62 23.0459 35.6103L23.8172 35.4137C24.0583 35.3496 24.1802 35.1885 24.183 34.9304V34.1075C24.1812 33.9856 24.1541 33.8989 24.1019 33.8476ZM23.6921 34.7874C23.6921 34.8786 23.6488 34.9359 23.5622 34.9593L23.2885 35.0308C23.2736 35.0339 23.2584 35.0357 23.2432 35.0363C23.2207 35.0366 23.1988 35.0291 23.1813 35.015C23.1634 34.9978 23.1517 34.9655 23.1552 34.9187V34.6252C23.1552 34.534 23.198 34.4769 23.2837 34.454L23.5608 34.3825C23.6089 34.3715 23.6435 34.3767 23.6646 34.3983C23.6848 34.4166 23.6946 34.4478 23.6942 34.4918V34.7881H23.6921V34.7874ZM22.2112 34.4767C22.2112 34.2214 22.0902 34.0614 21.8482 33.9968L21.0769 33.7995C20.9435 33.761 20.8445 33.7816 20.7806 33.8442C20.7246 33.8955 20.6969 33.9819 20.6974 34.1033L20.7001 34.9249C20.7024 35.1839 20.8234 35.345 21.0631 35.4082L21.8372 35.6055C21.8831 35.6188 21.9248 35.625 21.9624 35.6241C21.9938 35.6258 22.0253 35.6209 22.0548 35.6098C22.0842 35.5987 22.1111 35.5815 22.1335 35.5595C22.1872 35.5086 22.214 35.4222 22.214 35.3003L22.2112 34.4767ZM21.6984 35.0115C21.6846 35.0257 21.6642 35.0328 21.6372 35.0328C21.6372 35.0328 21.6076 35.0301 21.5918 35.0273L21.3168 34.9558C21.2315 34.9318 21.1862 34.8754 21.1862 34.784V34.4877C21.1871 34.445 21.1967 34.4139 21.2151 34.3942C21.2361 34.3726 21.2717 34.3673 21.3216 34.3783L21.5966 34.4498C21.6819 34.4732 21.7272 34.5296 21.7272 34.621V34.9173C21.7272 34.96 21.7272 34.9923 21.6984 35.0115ZM22.7537 36.5935C22.7674 36.5935 22.7805 36.5907 22.7991 36.5845L23.074 36.5137C23.1602 36.4931 23.2038 36.4353 23.2047 36.3405V36.0476C23.2056 36.014 23.1963 35.9809 23.1779 35.9527C23.1538 35.9293 23.116 35.9266 23.0713 35.9383L22.7935 36.0091C22.7078 36.0306 22.665 36.0884 22.665 36.1823L22.6622 36.4773C22.6627 36.5195 22.6725 36.5495 22.6918 36.5673C22.7055 36.5848 22.7262 36.5935 22.7537 36.5935ZM22.126 36.5935C22.1095 36.5934 22.0932 36.5904 22.0779 36.5845L21.8029 36.5137C21.7176 36.4931 21.6748 36.4353 21.6743 36.3405L21.6716 36.0476C21.6716 36.0043 21.6825 35.9754 21.7011 35.9527C21.7224 35.9293 21.7596 35.9266 21.8049 35.9383L22.0854 36.0091C22.1686 36.0304 22.214 36.0888 22.214 36.1823V36.4773C22.214 36.5199 22.203 36.5488 22.1872 36.5673C22.1796 36.5761 22.1702 36.583 22.1596 36.5875C22.149 36.592 22.1375 36.5941 22.126 36.5935Z" fill="#243438"/>
</g>
<defs>
<clipPath id="clip0_1_298">
<rect width="44" height="44" fill="white" transform="translate(0.5 0.424805)"/>
</clipPath>
</defs>
</svg>
