<svg width="34" height="35" viewBox="0 0 34 35" fill="none" xmlns="http://www.w3.org/2000/svg">
<g id="flowbite:brain-outline">
<path id="Vector" d="M17 26.7083C17.0023 27.451 16.7704 28.1756 16.3373 28.7789C15.9041 29.3822 15.2918 29.8337 14.5874 30.069C13.8829 30.3043 13.1222 30.3116 12.4134 30.0898C11.7046 29.8679 11.0838 29.4283 10.6392 28.8333H10.625C10.0794 28.8398 9.53978 28.7185 9.04942 28.479C8.55907 28.2396 8.13156 27.8887 7.80111 27.4545C7.47067 27.0202 7.24646 26.5146 7.14642 25.9782C7.04639 25.4417 7.0733 24.8893 7.22502 24.3652C6.47302 24.1329 5.80094 23.695 5.28463 23.1009C4.76833 22.5069 4.42837 21.7803 4.30314 21.0033C4.17791 20.2263 4.27239 19.4297 4.57591 18.7035C4.87943 17.9773 5.37992 17.3505 6.02085 16.8937C5.64107 16.1143 5.56412 15.2217 5.80492 14.3889C6.04571 13.5561 6.58711 12.8423 7.32419 12.3858C7.13437 11.902 7.05441 11.382 7.0901 10.8634C7.12578 10.3449 7.27621 9.84074 7.53051 9.38744C7.78482 8.93413 8.13666 8.54298 8.56059 8.24224C8.98453 7.94151 9.46997 7.73871 9.98185 7.6485C10.0779 7.13037 10.2884 6.6402 10.5979 6.21373C10.9074 5.78726 11.3082 5.43523 11.7711 5.18332C12.2339 4.9314 12.7471 4.78594 13.2733 4.75754C13.7995 4.72915 14.3254 4.81853 14.8127 5.01917C15.4601 5.2871 16.0135 5.74104 16.4028 6.32356C16.7922 6.90608 17 7.591 17 8.29167M17 26.7083V8.29167M17 26.7083C16.9977 27.451 17.2296 28.1756 17.6628 28.7789C18.0959 29.3822 18.7082 29.8337 19.4127 30.069C20.1171 30.3043 20.8778 30.3116 21.5866 30.0898C22.2954 29.8679 22.9163 29.4283 23.3609 28.8333H23.375C23.921 28.8405 24.4611 28.7196 24.952 28.4805C25.4429 28.2414 25.871 27.8906 26.2019 27.4562C26.5328 27.0219 26.7574 26.516 26.8577 25.9793C26.958 25.4425 26.9311 24.8897 26.7793 24.3652C27.531 24.1324 28.2026 23.6941 28.7185 23.0998C29.2343 22.5055 29.5738 21.7789 29.6986 21.0019C29.8233 20.2249 29.7285 19.4285 29.4247 18.7026C29.1209 17.9767 28.6202 17.3501 27.9792 16.8937C28.3588 16.1142 28.4356 15.2215 28.1945 14.3886C27.9534 13.5557 27.4118 12.842 26.6744 12.3858C26.8643 11.9021 26.9443 11.3822 26.9087 10.8637C26.8731 10.3453 26.7228 9.84118 26.4686 9.3879C26.2144 8.93461 25.8628 8.54344 25.439 8.24263C25.0152 7.94182 24.5299 7.73889 24.0182 7.6485C23.8681 6.83558 23.4383 6.10079 22.8034 5.57142C22.1685 5.04205 21.3683 4.75147 20.5417 4.75C19.6024 4.75 18.7015 5.12314 18.0373 5.78733C17.3732 6.45152 17 7.35236 17 8.29167M5.66669 15.375C5.66667 14.7895 5.81179 14.2132 6.08907 13.6975C6.36635 13.1819 6.76713 12.743 7.25556 12.4202C7.74399 12.0974 8.30484 11.9007 8.8879 11.8477C9.47097 11.7948 10.0581 11.8872 10.5967 12.1167M10.2 24.2306C9.23814 24.6517 8.15441 24.7019 7.15774 24.3714C6.16107 24.0409 5.32203 23.3531 4.80238 22.4407C4.28272 21.5283 4.11924 20.4558 4.34344 19.4299C4.56765 18.4041 5.16367 17.4976 6.01661 16.8852M28.3334 15.375C28.3335 14.7893 28.1884 14.2128 27.911 13.697C27.6336 13.1812 27.2327 12.7422 26.7441 12.4194C26.2555 12.0965 25.6944 11.8999 25.1111 11.847C24.5279 11.7942 23.9406 11.8869 23.4019 12.1167M23.7986 24.2306C24.7606 24.6529 25.8449 24.7039 26.8423 24.3737C27.8397 24.0436 28.6795 23.3557 29.1996 22.4428C29.7197 21.53 29.8832 20.4568 29.6586 19.4305C29.434 18.4042 28.8372 17.4974 27.9834 16.8852" stroke="white" stroke-width="1.73413" stroke-linecap="round" stroke-linejoin="round"/>
</g>
</svg>
