<svg width="49" height="49" viewBox="0 0 49 49" fill="none" xmlns="http://www.w3.org/2000/svg">
<g id="fluent-emoji-flat:briefcase">
<g id="Group">
<path id="Vector" d="M3.5 22.9248H45.5V42.4248C45.5 43.2205 45.1839 43.9835 44.6213 44.5461C44.0587 45.1087 43.2956 45.4248 42.5 45.4248H6.5C5.70435 45.4248 4.94129 45.1087 4.37868 44.5461C3.81607 43.9835 3.5 43.2205 3.5 42.4248V22.9248Z" fill="#8C5543"/>
<path id="Vector_2" d="M17.15 13.9248H6.5C5.70435 13.9248 4.94129 14.2408 4.37868 14.8035C3.81607 15.3661 3.5 16.1291 3.5 16.9248V22.9248C3.5 24.5161 4.13214 26.0422 5.25736 27.1674C6.38258 28.2926 7.9087 28.9248 9.5 28.9248H39.5C41.0913 28.9248 42.6174 28.2926 43.7426 27.1674C44.8679 26.0422 45.5 24.5161 45.5 22.9248V16.9248C45.5 16.1291 45.1839 15.3661 44.6213 14.8035C44.0587 14.2408 43.2956 13.9248 42.5 13.9248H31.85C31.5028 12.2318 30.5818 10.7106 29.2426 9.61824C27.9034 8.52586 26.2282 7.92926 24.5 7.92926C22.7718 7.92926 21.0966 8.52586 19.7574 9.61824C18.4182 10.7106 17.4972 12.2318 17.15 13.9248ZM20.255 13.9248C20.5649 13.0465 21.1396 12.2859 21.8999 11.748C22.6602 11.21 23.5686 10.9211 24.5 10.9211C25.4314 10.9211 26.3398 11.21 27.1001 11.748C27.8604 12.2859 28.4351 13.0465 28.745 13.9248H20.255Z" fill="#6D4534"/>
<path id="Vector_3" d="M20 28.9248L24.5 27.4248L29 28.9248V31.9248C29 32.3226 28.842 32.7042 28.5607 32.9855C28.2794 33.2668 27.8978 33.4248 27.5 33.4248H21.5C21.1022 33.4248 20.7206 33.2668 20.4393 32.9855C20.158 32.7042 20 32.3226 20 31.9248V28.9248Z" fill="#D3883E"/>
<path id="Vector_4" d="M20 27.4248C20 27.027 20.158 26.6454 20.4393 26.3641C20.7206 26.0828 21.1022 25.9248 21.5 25.9248H27.5C27.8978 25.9248 28.2794 26.0828 28.5607 26.3641C28.842 26.6454 29 27.027 29 27.4248V28.9248H20V27.4248Z" fill="#E19747"/>
</g>
</g>
</svg>
