<svg width="65" height="65" viewBox="0 0 65 65" fill="none" xmlns="http://www.w3.org/2000/svg">
<g id="fluent-color:code-block-24">
<g id="Group">
<path id="Vector" d="M8.5 17.0915C8.5 14.7929 9.41309 12.5885 11.0384 10.9632C12.6637 9.3379 14.8681 8.4248 17.1667 8.4248H47.8333C50.1319 8.4248 52.3363 9.3379 53.9616 10.9632C55.5869 12.5885 56.5 14.7929 56.5 17.0915V47.7581C56.5 50.0567 55.5869 52.2611 53.9616 53.8864C52.3363 55.5117 50.1319 56.4248 47.8333 56.4248H17.1667C14.8681 56.4248 12.6637 55.5117 11.0384 53.8864C9.41309 52.2611 8.5 50.0567 8.5 47.7581V17.0915Z" fill="url(#paint0_linear_1_325)"/>
<path id="Vector_2" d="M28.58 25.1715L21.3267 32.4248L28.58 39.6781C28.7765 39.8612 28.9341 40.082 29.0434 40.3274C29.1527 40.5727 29.2115 40.8375 29.2162 41.1061C29.221 41.3746 29.1716 41.6414 29.071 41.8904C28.9704 42.1394 28.8207 42.3657 28.6308 42.5556C28.4408 42.7455 28.2146 42.8952 27.9656 42.9958C27.7166 43.0964 27.4498 43.1458 27.1813 43.141C26.9127 43.1363 26.6479 43.0775 26.4026 42.9682C26.1572 42.8589 25.9364 42.7013 25.7533 42.5048L17.0867 33.8381C16.7121 33.4631 16.5018 32.9548 16.5018 32.4248C16.5018 31.8948 16.7121 31.3865 17.0867 31.0115L25.7533 22.3448C25.9364 22.1483 26.1572 21.9907 26.4026 21.8814C26.6479 21.7721 26.9127 21.7133 27.1813 21.7086C27.4498 21.7038 27.7166 21.7532 27.9656 21.8538C28.2146 21.9544 28.4408 22.1041 28.6308 22.294C28.8207 22.484 28.9704 22.7102 29.071 22.9592C29.1716 23.2082 29.221 23.475 29.2162 23.7435C29.2115 24.0121 29.1527 24.2769 29.0434 24.5222C28.9341 24.7676 28.7765 24.9884 28.58 25.1715ZM39.2467 22.3448L47.9133 31.0115C48.2879 31.3865 48.4982 31.8948 48.4982 32.4248C48.4982 32.9548 48.2879 33.4631 47.9133 33.8381L39.2467 42.5048C39.0636 42.7013 38.8428 42.8589 38.5974 42.9682C38.3521 43.0775 38.0873 43.1363 37.8187 43.141C37.5502 43.1458 37.2834 43.0964 37.0344 42.9958C36.7854 42.8952 36.5591 42.7455 36.3692 42.5556C36.1793 42.3657 36.0296 42.1394 35.929 41.8904C35.8284 41.6414 35.779 41.3746 35.7838 41.1061C35.7885 40.8375 35.8473 40.5727 35.9566 40.3274C36.0659 40.082 36.2235 39.8612 36.42 39.6781L43.6733 32.4248L36.42 25.1715C36.0667 24.7923 35.8744 24.2909 35.8835 23.7727C35.8927 23.2546 36.1026 22.7603 36.469 22.3938C36.8354 22.0274 37.3298 21.8175 37.8479 21.8083C38.3661 21.7992 38.8675 21.9915 39.2467 22.3448Z" fill="url(#paint1_linear_1_325)"/>
</g>
</g>
<defs>
<linearGradient id="paint0_linear_1_325" x1="20.204" y1="8.4248" x2="46.5267" y2="56.4248" gradientUnits="userSpaceOnUse">
<stop offset="0.028" stop-color="#E67EEA"/>
<stop offset="0.438" stop-color="#AD64D7"/>
<stop offset="1" stop-color="#794DC5"/>
</linearGradient>
<linearGradient id="paint1_linear_1_325" x1="24.0867" y1="22.5795" x2="36.6173" y2="55.0168" gradientUnits="userSpaceOnUse">
<stop stop-color="#FDFDFD"/>
<stop offset="1" stop-color="#F9DCFA"/>
</linearGradient>
</defs>
</svg>
