<svg width="40" height="39" viewBox="0 0 40 39" fill="none" xmlns="http://www.w3.org/2000/svg">
<g id="ic:baseline-apple">
<path id="Vector" d="M28.2063 32.955C26.6138 34.4988 24.875 34.255 23.2013 33.5237C21.43 32.7762 19.805 32.7437 17.9363 33.5237C15.5963 34.5312 14.3613 34.2388 12.9638 32.955C5.03377 24.7813 6.20377 12.3337 15.2063 11.8787C17.4 11.9925 18.9275 13.0812 20.2113 13.1787C22.1288 12.7887 23.965 11.6675 26.0125 11.8137C28.4663 12.0087 30.3188 12.9837 31.5375 14.7387C26.4675 17.7775 27.67 24.4563 32.3175 26.325C31.3913 28.7625 30.1888 31.1838 28.19 32.9713L28.2063 32.955ZM20.0488 11.7812C19.805 8.1575 22.7463 5.1675 26.1263 4.875C26.5975 9.0675 22.3238 12.1875 20.0488 11.7812Z" fill="black"/>
</g>
</svg>
