<svg width="53" height="53" viewBox="0 0 53 53" fill="none" xmlns="http://www.w3.org/2000/svg">
<g id="icon-park:graphic-stitching-three">
<g id="Group">
<path id="Vector" d="M26.5 15.5915C29.4915 15.5915 31.9167 13.1664 31.9167 10.1748C31.9167 7.18331 29.4915 4.75818 26.5 4.75818C23.5085 4.75818 21.0833 7.18331 21.0833 10.1748C21.0833 13.1664 23.5085 15.5915 26.5 15.5915Z" fill="#2F88FF" stroke="black" stroke-width="4.33333" stroke-linecap="round" stroke-linejoin="round"/>
<path id="Vector_2" d="M26.5 48.0915C29.4915 48.0915 31.9167 45.6664 31.9167 42.6748C31.9167 39.6833 29.4915 37.2582 26.5 37.2582C23.5085 37.2582 21.0833 39.6833 21.0833 42.6748C21.0833 45.6664 23.5085 48.0915 26.5 48.0915Z" fill="#2F88FF" stroke="black" stroke-width="4.33333" stroke-linecap="round" stroke-linejoin="round"/>
<path id="Vector_3" d="M15.6667 21.0082H4.83334V31.8415H15.6667V21.0082Z" fill="#2F88FF" stroke="black" stroke-width="4.33333" stroke-linecap="round" stroke-linejoin="round"/>
<path id="Vector_4" d="M48.1667 21.0082H37.3333V31.8415H48.1667V21.0082Z" fill="#2F88FF" stroke="black" stroke-width="4.33333" stroke-linecap="round" stroke-linejoin="round"/>
<path id="Vector_5" d="M21.0833 10.1749H10.25V21.0082" stroke="black" stroke-width="4.33333" stroke-linecap="round" stroke-linejoin="round"/>
<path id="Vector_6" d="M21.0833 42.6749H10.25V31.8416" stroke="black" stroke-width="4.33333" stroke-linecap="round" stroke-linejoin="round"/>
<path id="Vector_7" d="M31.9167 10.1749H43.8333V21.0082" stroke="black" stroke-width="4.33333" stroke-linecap="round" stroke-linejoin="round"/>
<path id="Vector_8" d="M31.9167 42.6749H42.75V31.8416" stroke="black" stroke-width="4.33333" stroke-linecap="round" stroke-linejoin="round"/>
</g>
</g>
</svg>
