<svg width="31" height="31" viewBox="0 0 31 31" fill="none" xmlns="http://www.w3.org/2000/svg">
<g id="ion:logo-google-playstore">
<path id="Vector" d="M3.3125 3.9858V27.0131C3.31265 27.0631 3.32756 27.1119 3.35533 27.1534C3.38311 27.1949 3.42253 27.2273 3.46865 27.2466C3.51477 27.2658 3.56553 27.2709 3.61458 27.2614C3.66362 27.2519 3.70876 27.2281 3.74434 27.193L15.7344 15.5001L3.74434 3.80591C3.70876 3.77084 3.66362 3.74704 3.61458 3.73752C3.56553 3.728 3.51477 3.73316 3.46865 3.75237C3.42253 3.77158 3.38311 3.80398 3.35533 3.84551C3.32756 3.88703 3.31265 3.93584 3.3125 3.9858ZM20.7617 10.6954L5.72773 2.41255L5.71836 2.40728C5.45937 2.26665 5.21328 2.61704 5.42539 2.82095L17.2104 14.0897L20.7617 10.6954ZM5.42656 28.1792C5.21328 28.3831 5.45938 28.7335 5.71953 28.5928L5.72891 28.5876L20.7617 20.3047L17.2104 16.9092L5.42656 28.1792ZM26.8309 14.0352L22.6326 11.7231L18.6852 15.5001L22.6326 19.2752L26.8309 16.9649C27.9729 16.3338 27.9729 14.6663 26.8309 14.0352Z" fill="black"/>
</g>
</svg>
