<svg width="39" height="39" viewBox="0 0 39 39" fill="none" xmlns="http://www.w3.org/2000/svg">
<g id="material-symbols-light:handshake-outline-rounded">
<path id="Vector" d="M19.0281 32.0749C19.235 32.0749 19.4472 32.0284 19.6646 31.9356C19.8821 31.8427 20.0578 31.7292 20.1919 31.5951L32.5356 19.2499C32.9335 18.8519 33.2407 18.4456 33.4571 18.0307C33.6724 17.6138 33.7801 17.1567 33.7801 16.6596C33.7801 16.1561 33.6724 15.6673 33.4571 15.1934C33.2407 14.7184 32.9335 14.2856 32.5356 13.8951L26.5981 7.95755C26.2065 7.55961 25.8038 7.26775 25.39 7.08197C24.9773 6.89619 24.5191 6.8033 24.0156 6.8033C23.5185 6.8033 23.0567 6.89619 22.6302 7.08197C22.2038 7.26775 21.8021 7.55908 21.4253 7.95597L20.0446 9.33664L22.9738 12.2737C23.2884 12.583 23.5232 12.9345 23.6784 13.3282C23.8325 13.7219 23.9096 14.1215 23.9096 14.5268C23.9096 15.3512 23.6399 16.0331 23.1005 16.5725C22.5611 17.1119 21.8797 17.381 21.0564 17.38C20.65 17.38 20.2536 17.3182 19.8673 17.1947C19.481 17.0712 19.1332 16.8548 18.8239 16.5456L16.4948 14.2276C16.3122 14.0449 16.0789 13.9536 15.795 13.9536C15.51 13.9536 15.2762 14.0449 15.0936 14.2276L8.95815 20.363C8.79876 20.5234 8.67895 20.7055 8.59873 20.9092C8.51851 21.1129 8.4784 21.3188 8.4784 21.5267C8.4784 21.9004 8.5982 22.2081 8.83781 22.4498C9.07637 22.6926 9.38248 22.814 9.75615 22.814C9.96304 22.814 10.1752 22.7675 10.3926 22.6746C10.6101 22.5807 10.7858 22.4667 10.9199 22.3326L15.377 17.8756C15.5248 17.7278 15.7053 17.647 15.9185 17.6333C16.1317 17.6196 16.3249 17.7003 16.498 17.8756C16.6669 18.0444 16.7513 18.2313 16.7513 18.4361C16.7513 18.6408 16.6669 18.8277 16.498 18.9966L12.0488 23.4536C11.8884 23.6141 11.768 23.7962 11.6878 23.9999C11.6086 24.2047 11.5691 24.4105 11.5691 24.6174C11.5691 24.971 11.6936 25.2724 11.9427 25.5215C12.1918 25.7706 12.4932 25.8957 12.8468 25.8967C13.0537 25.8967 13.2659 25.8497 13.4833 25.7558C13.7008 25.6619 13.8765 25.5484 14.0106 25.4154L18.8334 20.6021C18.9812 20.4532 19.1611 20.3719 19.3733 20.3582C19.5855 20.3445 19.7786 20.4252 19.9528 20.6005C20.1217 20.7694 20.2061 20.9562 20.2061 21.161C20.2061 21.3657 20.1217 21.5526 19.9528 21.7215L15.1395 26.5443C15.0001 26.6784 14.8851 26.8541 14.7943 27.0716C14.7035 27.289 14.6581 27.5012 14.6581 27.7081C14.6581 28.0606 14.7832 28.3614 15.0334 28.6106C15.2836 28.8618 15.5849 28.9874 15.9375 28.9874C16.1444 28.9874 16.3502 28.9473 16.555 28.8671C16.7598 28.7868 16.9413 28.6665 17.0996 28.5061L21.9241 23.6927C22.0718 23.5439 22.2518 23.4626 22.464 23.4489C22.6761 23.4362 22.8698 23.517 23.0451 23.6911C23.2129 23.86 23.2968 24.0469 23.2968 24.2516C23.2968 24.4564 23.2124 24.6432 23.0435 24.8121L18.2222 29.6334C18.0628 29.7938 17.943 29.9865 17.8628 30.2113C17.7826 30.4361 17.7425 30.6414 17.7425 30.8272C17.7425 31.2009 17.8739 31.5022 18.1367 31.7313C18.3996 31.9604 18.6972 32.0749 19.0297 32.0749M19.0202 33.6582C18.2064 33.6582 17.5097 33.3606 16.9302 32.7652C16.3507 32.1699 16.0963 31.4342 16.1671 30.5581C15.2698 30.5686 14.523 30.301 13.9266 29.7553C13.3303 29.2096 13.0468 28.4475 13.0764 27.469C12.099 27.4795 11.3284 27.1998 10.7647 26.6298C10.2011 26.0598 9.94456 25.3093 9.99523 24.3783C9.1149 24.3889 8.37812 24.1408 7.7849 23.6341C7.19273 23.1296 6.89665 22.4266 6.89665 21.5251C6.89665 21.1187 6.97529 20.7124 7.13256 20.306C7.28984 19.8985 7.52206 19.5407 7.82923 19.2325L13.9963 13.0654C14.4819 12.5809 15.0804 12.3386 15.7918 12.3386C16.5033 12.3386 17.1018 12.5814 17.5873 13.067L19.8847 15.3644C20.0188 15.5048 20.1845 15.6204 20.3819 15.7111C20.5793 15.8019 20.8015 15.8468 21.0485 15.8457C21.3873 15.8457 21.6866 15.7275 21.9462 15.4911C22.2059 15.2546 22.3363 14.9464 22.3373 14.5664C22.3373 14.3194 22.2919 14.0977 22.2011 13.9014C22.1104 13.704 21.9953 13.5383 21.856 13.4042L16.4093 7.95755C16.0166 7.55961 15.6087 7.26775 15.1854 7.08197C14.7621 6.89619 14.2987 6.8033 13.7952 6.8033C13.2981 6.8033 12.8463 6.89619 12.4399 7.08197C12.0346 7.26775 11.6329 7.55961 11.235 7.95755L6.41373 12.7867C5.86062 13.3388 5.5049 14.0127 5.34656 14.8086C5.18823 15.6045 5.26054 16.3645 5.56348 17.0886C5.62259 17.2934 5.5962 17.4913 5.48431 17.6824C5.37243 17.8734 5.21409 17.9948 5.00931 18.0466C4.80454 18.0983 4.60134 18.0708 4.39973 17.9642C4.19812 17.8576 4.07145 17.7009 4.01973 17.494C3.67879 16.4701 3.60437 15.4362 3.79648 14.3922C3.98859 13.3483 4.4847 12.4262 5.28481 11.6261L10.0728 6.83655C10.6249 6.28978 11.2091 5.88339 11.8256 5.61739C12.442 5.35244 13.1086 5.21997 13.8253 5.21997C14.542 5.21997 15.2028 5.35297 15.8076 5.61897C16.4135 5.88392 16.9899 6.28978 17.5366 6.83655L18.9141 8.21564L20.2948 6.83655C20.8469 6.28978 21.4258 5.88339 22.0317 5.61739C22.6376 5.35244 23.2989 5.21997 24.0156 5.21997C24.7324 5.21997 25.399 5.35297 26.0154 5.61897C26.6308 5.88392 27.2113 6.28978 27.7571 6.83655L33.6566 12.7345C34.2023 13.2802 34.6235 13.8929 34.9201 14.5727C35.2167 15.2525 35.3645 15.9507 35.3634 16.6675C35.3634 17.3852 35.2156 18.0466 34.9201 18.6514C34.6245 19.2562 34.2033 19.8326 33.6566 20.3804L21.3113 32.7146C20.983 33.0439 20.6252 33.2835 20.2378 33.4334C19.8515 33.5833 19.4467 33.6582 19.0202 33.6582Z" fill="white"/>
</g>
</svg>
