<svg width="44" height="45" viewBox="0 0 44 45" fill="none" xmlns="http://www.w3.org/2000/svg">
<g id="mdi:learn-outline">
<path id="Vector" d="M41.6666 17.2968V31.1667H39V18.9983V18.1564L38.2607 18.5593L34.594 20.5576L34.3333 20.6997V20.9967V31.6999L22 38.4304L9.66665 31.6999V20.9967V20.6997L9.40592 20.5576L2.87781 16.9998L22 6.56954L41.6666 17.2968ZM34.7427 17.4389L35.5475 17L34.7427 16.5611L22.2394 9.74105L22 9.61046L21.7606 9.74105L9.25722 16.5611L8.45248 17L9.25722 17.4389L21.7606 24.2589L22 24.3895L22.2394 24.2589L34.7427 17.4389ZM31.4056 30.2726L31.6666 30.1305V29.8333V22.995V22.1523L30.927 22.5562L22 27.4303L13.0729 22.5562L12.3333 22.1523V22.995V29.8333V30.1305L12.5944 30.2726L21.761 35.2592L22 35.3892L22.2389 35.2592L31.4056 30.2726Z" fill="white" stroke="#1C9FDA"/>
</g>
</svg>
