<svg width="32" height="32" viewBox="0 0 32 32" fill="none" xmlns="http://www.w3.org/2000/svg">
<g id="mingcute:arrows-left-line">
<g id="Group">
<path id="Vector" fill-rule="evenodd" clip-rule="evenodd" d="M16.3907 23.6094C16.1407 23.3593 16.0003 23.0203 16.0003 22.6667C16.0003 22.3132 16.1407 21.9741 16.3907 21.724L22.1147 16L16.3907 10.276C16.1478 10.0246 16.0134 9.68777 16.0165 9.33817C16.0195 8.98858 16.1597 8.65416 16.4069 8.40695C16.6541 8.15974 16.9886 8.01951 17.3382 8.01647C17.6877 8.01344 18.0246 8.14783 18.276 8.39071L24.9427 15.0574C25.1926 15.3074 25.3331 15.6465 25.3331 16C25.3331 16.3536 25.1926 16.6927 24.9427 16.9427L18.276 23.6094C18.026 23.8593 17.6869 23.9998 17.3334 23.9998C16.9798 23.9998 16.6407 23.8593 16.3907 23.6094ZM8.39068 23.6094C8.14072 23.3593 8.0003 23.0203 8.0003 22.6667C8.0003 22.3132 8.14072 21.9741 8.39068 21.724L14.1147 16L8.39069 10.276C8.14781 10.0246 8.01342 9.68777 8.01645 9.33817C8.01949 8.98858 8.15972 8.65416 8.40693 8.40695C8.65414 8.15974 8.98856 8.01951 9.33815 8.01647C9.68775 8.01344 10.0246 8.14783 10.276 8.39071L16.9427 15.0574C17.1926 15.3074 17.3331 15.6465 17.3331 16C17.3331 16.3536 17.1926 16.6927 16.9427 16.9427L10.276 23.6094C10.026 23.8593 9.6869 23.9998 9.33335 23.9998C8.9798 23.9998 8.64072 23.8593 8.39068 23.6094Z" fill="black"/>
</g>
</g>
</svg>
