<svg width="19" height="18" viewBox="0 0 19 18" fill="none" xmlns="http://www.w3.org/2000/svg">
<g id="qlementine-icons:check-tick-16">
<path id="Vector" fill-rule="evenodd" clip-rule="evenodd" d="M15.9125 4.71378C16.2612 5.02203 16.2939 5.55528 15.9856 5.90628L9.51687 13.2188C9.44217 13.3032 9.35129 13.3719 9.2496 13.4206C9.14792 13.4694 9.0375 13.4973 8.92486 13.5026C8.81222 13.508 8.69966 13.4907 8.59381 13.4518C8.48797 13.4129 8.39099 13.3532 8.30862 13.2762L4.08987 9.33866C3.92758 9.18571 3.83243 8.97473 3.82524 8.75183C3.81804 8.52894 3.89938 8.31227 4.05148 8.14917C4.20357 7.98607 4.41405 7.88982 4.6369 7.88146C4.85975 7.87309 5.07686 7.9533 5.24075 8.10453L8.8295 11.4458L14.7245 4.78578C14.798 4.70264 14.8872 4.63481 14.9869 4.58618C15.0867 4.53755 15.195 4.50908 15.3058 4.50239C15.4166 4.4957 15.5276 4.51093 15.6325 4.5472C15.7373 4.58348 15.834 4.64008 15.917 4.71378H15.9125Z" fill="white"/>
</g>
</svg>
