<svg width="53" height="53" viewBox="0 0 53 53" fill="none" xmlns="http://www.w3.org/2000/svg">
<g id="twemoji:brain">
<path id="Vector" d="M43.6831 38.9438C43.6874 39.3526 43.582 39.887 43.4722 40.3276C42.7052 43.4259 39.2992 46.9027 34.5051 46.5864C30.1602 46.3004 26.6213 44.2146 26.6213 41.2896C26.6213 38.3646 30.1516 35.9928 34.5051 35.9928C38.8587 35.9928 43.6557 36.0188 43.6831 38.9438Z" fill="#EA596E"/>
<path id="Vector_2" d="M34.5051 36.4839C32.1666 36.4839 26.8293 37.131 25.6044 37.131C23.4407 37.131 21.6857 38.4888 21.6857 40.1643C21.6857 40.9703 22.0988 41.6983 22.7603 42.2414C22.7603 42.2414 24.2134 43.6989 26.8308 42.9998C27.9762 42.6936 29.8396 40.42 33.1199 40.0589C34.7536 39.8783 37.8143 41.1422 43.1934 41.1726C43.4246 40.6757 43.4722 40.3304 43.4722 40.3304C43.4722 37.4026 38.8587 36.4839 34.5051 36.4839Z" fill="#DD2E44"/>
<path id="Vector_3" d="M43.4722 40.3276C43.4722 40.3276 46.6269 39.6877 48.5884 37.1079C50.875 34.0991 50.5745 30.8795 50.5745 30.8795C52.8914 26.5461 49.8523 22.4829 49.8523 22.4829C49.5504 17.9084 46.7222 16.0133 46.7222 16.0133C44.8863 11.6496 40.8245 10.4767 40.8245 10.4767C37.6352 6.7457 31.9773 6.86559 31.9773 6.86559C31.9773 6.86559 26.6762 4.92281 19.3991 7.10681C18.1959 7.46792 14.163 8.31003 11.2134 10.1156C1.91698 15.8067 1.21354 24.6814 1.34354 26.1244C2.06431 34.1887 7.7222 35.6331 11.3333 36.4753C12.1754 38.7618 15.2752 42.9753 20.8421 41.4109C27.7032 40.2077 30.5921 38.1609 32.2778 38.1609C33.9634 38.1609 38.6579 39.9665 43.4722 40.3276Z" fill="#F4ABBA"/>
<g id="Group">
<path id="Vector_4" d="M26.1201 27.3608C29.4828 25.548 31.3057 25.717 32.9148 25.8629C33.4261 25.9091 33.91 25.9452 34.3997 25.9423C37.2654 25.8773 39.5867 24.6698 40.6137 23.5012C40.7314 23.356 40.7884 23.1709 40.7727 22.9846C40.757 22.7983 40.6698 22.6253 40.5294 22.5019C40.3889 22.3784 40.2062 22.3141 40.0194 22.3224C39.8327 22.3308 39.6563 22.411 39.5274 22.5464C38.7359 23.4478 36.7844 24.443 34.3664 24.4979C33.9331 24.5109 33.4983 24.4676 33.0477 24.4257C31.3216 24.2653 29.178 24.0689 25.434 26.0897C24.4734 26.6082 23.1561 26.8003 21.729 26.9448C18.5556 22.3645 20.4651 18.3749 21.0111 17.4244C21.0646 17.4273 21.1166 17.4447 21.1714 17.4447C21.7492 17.4447 22.3299 17.3031 22.8557 17.0056C23.0158 16.908 23.1318 16.7521 23.179 16.5706C23.2263 16.3891 23.2011 16.1964 23.1088 16.0332C23.0164 15.8699 22.8643 15.749 22.6844 15.696C22.5046 15.6429 22.3111 15.6619 22.145 15.7489C21.6906 15.999 21.1585 16.0685 20.6551 15.9435C20.1517 15.8184 19.714 15.508 19.4294 15.0743C19.322 14.9229 19.1604 14.8186 18.9781 14.7832C18.7959 14.7477 18.607 14.7839 18.4506 14.8841C18.2943 14.9843 18.1826 15.1408 18.1386 15.3212C18.0947 15.5016 18.1219 15.692 18.2147 15.8529C18.557 16.3888 19.0394 16.7918 19.584 17.0619C18.8314 18.5901 17.4029 22.6086 20.1213 27.1022C18.2089 27.29 16.2936 27.5601 14.7942 28.5264C13.7408 29.2174 12.8216 30.0939 12.0816 31.1135C11.173 30.9575 7.84644 30.1384 7.26578 26.4464C7.62689 26.1662 7.91867 25.7965 8.09922 25.34C8.13412 25.2518 8.15131 25.1576 8.1498 25.0627C8.14829 24.9679 8.12812 24.8743 8.09043 24.7872C8.05274 24.7002 7.99827 24.6214 7.93014 24.5554C7.862 24.4894 7.78154 24.4375 7.69333 24.4026C7.60513 24.3677 7.51091 24.3505 7.41607 24.352C7.32122 24.3535 7.2276 24.3737 7.14055 24.4114C7.0535 24.449 6.97472 24.5035 6.90872 24.5716C6.84272 24.6398 6.79079 24.7202 6.75589 24.8085C6.70144 24.9604 6.61458 25.0986 6.50134 25.2136C6.38809 25.3286 6.25118 25.4176 6.10011 25.4743C5.94708 25.5249 5.78497 25.542 5.62475 25.5246C5.46452 25.5071 5.30991 25.4555 5.17133 25.3732C5.08844 25.3271 4.99728 25.2978 4.90306 25.287C4.80883 25.2761 4.71339 25.2839 4.62219 25.3099C4.43798 25.3625 4.2822 25.486 4.18911 25.6534C4.09602 25.8209 4.07325 26.0184 4.1258 26.2026C4.17835 26.3868 4.30192 26.5426 4.46933 26.6357C4.87956 26.8639 5.31867 26.9795 5.75489 26.9795C5.80833 26.9795 5.85889 26.9549 5.91233 26.952C6.59989 30.4374 9.35444 31.9686 11.303 32.4322C11.0481 32.9753 10.8865 33.5573 10.8249 34.154C10.8081 34.3448 10.8677 34.5344 10.9907 34.6812C11.1136 34.8281 11.2899 34.92 11.4807 34.9369L11.5457 34.9398C11.7262 34.9398 11.9002 34.8721 12.0333 34.7502C12.1665 34.6283 12.2491 34.4609 12.265 34.2811C12.421 32.529 14.0922 30.6989 15.5771 29.7383C16.9696 28.8413 19.0077 28.6521 20.9808 28.4687C22.8947 28.2939 24.7031 28.1263 26.1201 27.3608ZM44.7043 25.1883C44.6124 25.3565 44.591 25.5543 44.6449 25.7383C44.6988 25.9222 44.8236 26.0772 44.9918 26.1691C45.16 26.2611 45.3578 26.2824 45.5417 26.2285C45.7256 26.1746 45.8806 26.0498 45.9726 25.8817C46 25.8326 48.6332 20.8998 43.7033 17.5848C43.5444 17.4779 43.3494 17.4386 43.1614 17.4754C42.9734 17.5122 42.8078 17.6222 42.7009 17.7812C42.594 17.9402 42.5547 18.1351 42.5915 18.3231C42.6283 18.5111 42.7384 18.6768 42.8973 18.7837C46.7164 21.3519 44.7881 25.0323 44.7043 25.1883ZM14.7653 13.5259C14.8799 13.5259 14.9928 13.4987 15.0948 13.4464C15.1968 13.3942 15.2849 13.3185 15.3518 13.2254C17.4462 10.312 20.3467 11.3087 20.4694 11.3549C20.6473 11.4136 20.8411 11.4009 21.0098 11.3195C21.1785 11.238 21.309 11.0942 21.3736 10.9184C21.4383 10.7425 21.4321 10.5485 21.3564 10.3771C21.2807 10.2058 21.1413 10.0706 20.9678 10C19.5811 9.48578 16.3788 9.32401 14.1789 12.3833C14.1017 12.4912 14.0557 12.6183 14.0459 12.7506C14.0362 12.883 14.0631 13.0154 14.1237 13.1335C14.1843 13.2515 14.2762 13.3506 14.3894 13.4198C14.5026 13.489 14.6326 13.5257 14.7653 13.5259ZM33.6471 10.7988C36.861 10.5373 38.3228 12.8672 38.3892 12.977C38.4863 13.1423 38.6451 13.2623 38.8307 13.3105C38.9226 13.3344 39.0183 13.3399 39.1123 13.3268C39.2063 13.3137 39.2968 13.2822 39.3787 13.2341C39.4605 13.186 39.5321 13.1223 39.5893 13.0465C39.6465 12.9708 39.6883 12.8845 39.7121 12.7926C39.736 12.7008 39.7416 12.6051 39.7285 12.5111C39.7154 12.417 39.6839 12.3265 39.6358 12.2447C39.5578 12.1132 37.7002 9.04089 33.5344 9.35867C33.4399 9.36607 33.3477 9.39202 33.2632 9.43504C33.1787 9.47806 33.1034 9.53731 33.0418 9.6094C32.9173 9.75501 32.8558 9.94409 32.8707 10.1351C32.8857 10.326 32.9759 10.5032 33.1215 10.6277C33.2671 10.7522 33.4561 10.8137 33.6471 10.7988ZM46.8638 31.9036C46.5084 31.8833 46.117 32.165 46.0852 32.5637C46.0823 32.5897 45.8527 35.0467 43.3263 35.8772C43.1611 35.9291 43.0202 36.0388 42.9292 36.1861C42.8382 36.3334 42.8032 36.5085 42.8308 36.6794C42.8583 36.8504 42.9464 37.0057 43.0791 37.117C43.2117 37.2283 43.38 37.2881 43.5531 37.2856C43.6297 37.2855 43.7057 37.2734 43.7784 37.2494C47.2047 36.1257 47.5138 32.8237 47.5253 32.6836C47.5332 32.5889 47.5224 32.4936 47.4934 32.4031C47.4644 32.3126 47.4179 32.2287 47.3564 32.1563C47.295 32.0838 47.2198 32.0242 47.1353 31.9808C47.0507 31.9375 46.9585 31.9112 46.8638 31.9036Z" fill="#EA596E"/>
<path id="Vector_5" d="M11.1123 24.885C11.0839 24.9777 11.0744 25.0751 11.0845 25.1715C11.0945 25.2679 11.1239 25.3613 11.1708 25.4461C11.2177 25.531 11.2812 25.6055 11.3575 25.6652C11.4338 25.725 11.5213 25.7688 11.6149 25.794C11.7085 25.8192 11.8062 25.8254 11.9022 25.812C11.9982 25.7987 12.0906 25.7661 12.1737 25.7164C12.2569 25.6666 12.3292 25.6006 12.3863 25.5223C12.4434 25.4439 12.4842 25.3549 12.5062 25.2605C12.6453 24.7601 12.9687 24.3308 13.4114 24.0591C13.8541 23.7874 14.3832 23.6933 14.8924 23.7959C14.9853 23.8153 15.0811 23.8163 15.1743 23.7987C15.2675 23.7811 15.3564 23.7454 15.4358 23.6935C15.5152 23.6416 15.5836 23.5745 15.6371 23.4962C15.6906 23.4178 15.7281 23.3297 15.7475 23.2369C15.767 23.144 15.7679 23.0483 15.7504 22.955C15.7328 22.8618 15.697 22.773 15.6451 22.6935C15.5932 22.6141 15.5262 22.5457 15.4478 22.4922C15.3695 22.4387 15.2814 22.4012 15.1885 22.3818C14.5875 22.2595 13.9645 22.3025 13.3859 22.506C11.7016 19.6258 12.0295 16.786 12.0339 16.7557C12.0593 16.5658 12.0083 16.3737 11.8921 16.2214C11.7759 16.0692 11.604 15.9694 11.4142 15.9439C11.225 15.9195 11.0339 15.9706 10.882 16.086C10.7301 16.2014 10.6297 16.3719 10.6024 16.5607C10.5836 16.7008 10.198 19.906 12.1379 23.2253C11.6442 23.669 11.2882 24.245 11.1123 24.885ZM27.2598 21.3172C27.5483 21.0552 27.9251 20.9118 28.3148 20.9158C28.7046 20.9198 29.0784 21.0709 29.3614 21.3389C29.499 21.4722 29.6838 21.5454 29.8753 21.5424C30.0668 21.5394 30.2493 21.4605 30.3827 21.323C30.5161 21.1856 30.5896 21.0009 30.5869 20.8094C30.5842 20.6179 30.5055 20.4353 30.3682 20.3018C30.0421 19.9912 29.6478 19.7612 29.217 19.6301C29.6445 18.1625 29.4755 17.5111 29.0783 16.2905C28.9997 16.0517 28.9241 15.8119 28.8515 15.5712L28.8082 15.4268C28.2824 13.6819 27.9343 12.5307 28.9339 10.9057C29.0342 10.7425 29.0657 10.5461 29.0212 10.3597C28.9768 10.1733 28.8602 10.0122 28.697 9.91187C28.5338 9.8115 28.3374 9.78008 28.151 9.8245C27.9647 9.86893 27.8036 9.98557 27.7032 10.1488C26.3628 12.327 26.8553 13.9578 27.4259 15.8457L27.4692 15.9901C27.5539 16.2694 27.6324 16.5183 27.7046 16.7369C28.0614 17.8361 28.1698 18.2044 27.7335 19.5333C27.1874 19.6309 26.681 19.8836 26.2747 20.2613C26.1396 20.3931 26.0616 20.5726 26.0572 20.7612C26.0528 20.9499 26.1224 21.1328 26.2511 21.2708C26.3798 21.4087 26.5575 21.4909 26.746 21.4995C26.9345 21.5082 27.1189 21.4428 27.2598 21.3172ZM36.4537 17.0055C36.8826 17.0068 37.3064 16.9126 37.6944 16.7297C37.8678 16.6481 38.0016 16.5009 38.0665 16.3207C38.1314 16.1404 38.122 15.9417 38.0404 15.7684C37.9588 15.595 37.8117 15.4612 37.6314 15.3963C37.4511 15.3314 37.2524 15.3408 37.0791 15.4224C36.7241 15.5854 36.3206 15.6078 35.9498 15.4854C35.5789 15.3629 35.2681 15.1046 35.08 14.7623C35.0371 14.6755 34.9771 14.5983 34.9037 14.5351C34.8304 14.472 34.745 14.4242 34.6528 14.3947C34.5606 14.3652 34.4634 14.3545 34.367 14.3633C34.2706 14.3721 34.1769 14.4002 34.0916 14.4459C34.0062 14.4916 33.9309 14.5541 33.8702 14.6295C33.8095 14.7048 33.7645 14.7917 33.738 14.8848C33.7115 14.9779 33.704 15.0754 33.7159 15.1715C33.7278 15.2676 33.759 15.3603 33.8074 15.4441C34.0674 15.9294 34.4545 16.3122 34.9052 16.578C34.1295 18.463 34.5701 20.465 34.9298 21.5267C34.9573 21.6198 35.0033 21.7065 35.0651 21.7814C35.1268 21.8564 35.2031 21.9181 35.2893 21.963C35.3755 22.0078 35.4698 22.0347 35.5667 22.0422C35.6635 22.0497 35.7609 22.0376 35.853 22.0066C35.945 21.9756 36.0299 21.9263 36.1025 21.8617C36.175 21.7972 36.2339 21.7186 36.2754 21.6308C36.3169 21.543 36.3403 21.4477 36.3441 21.3506C36.3479 21.2535 36.3321 21.1567 36.2977 21.0659C36.055 20.3465 35.5841 18.5294 36.2948 16.9839C36.3496 16.9868 36.4002 17.0055 36.4537 17.0055ZM43.3826 30.6252C43.3771 30.5304 43.3529 30.4375 43.3112 30.3521C43.2696 30.2667 43.2114 30.1905 43.1401 30.1277C43.0687 30.065 42.9856 30.017 42.8956 29.9866C42.8056 29.9562 42.7104 29.944 42.6156 29.9507C42.2693 29.9746 41.9216 29.9299 41.5926 29.8191C41.2636 29.7083 40.9597 29.5336 40.6984 29.305C40.4371 29.0764 40.2235 28.7985 40.0699 28.4872C39.9163 28.1758 39.8257 27.8372 39.8033 27.4908C39.7867 27.301 39.6973 27.125 39.5537 26.9998C39.4102 26.8745 39.2237 26.8098 39.0334 26.8191C38.9388 26.8255 38.8463 26.8505 38.7613 26.8927C38.6763 26.9349 38.6004 26.9934 38.5381 27.0649C38.4757 27.1364 38.428 27.2195 38.3978 27.3094C38.3675 27.3993 38.3553 27.4943 38.3618 27.589C38.421 28.4412 38.746 29.2097 39.24 29.8351C38.0786 31.2015 36.5576 31.5901 35.7098 31.6898C34.9601 31.7793 34.3043 31.7028 33.546 31.6132C32.8512 31.5338 32.0654 31.4428 31.0933 31.4717L31.0861 31.4731C31.0572 31.06 30.959 30.4577 30.6455 29.9564C30.5378 29.808 30.3777 29.706 30.1976 29.6711C30.0175 29.6362 29.8309 29.671 29.6755 29.7684C29.5201 29.8659 29.4075 30.0187 29.3605 30.196C29.3134 30.3732 29.3355 30.5618 29.4221 30.7234C29.6157 31.034 29.6518 31.5294 29.6518 31.7707C28.9238 32.0321 28.294 32.4163 27.7249 32.7875C26.708 33.4491 25.9063 33.972 24.7002 33.7004C23.6082 33.4505 22.5148 33.4 21.5874 33.53C21.443 33.1674 21.2148 32.7341 20.8623 32.4004C20.7231 32.2688 20.5372 32.198 20.3457 32.2034C20.1542 32.2088 19.9727 32.2901 19.8411 32.4293C19.7095 32.5686 19.6386 32.7544 19.644 32.9459C19.6495 33.1374 19.7307 33.3189 19.87 33.4505C19.9942 33.5675 20.0924 33.738 20.1719 33.9084C18.5787 34.5642 17.7799 35.6605 17.7423 35.714C17.6657 35.8218 17.6202 35.9487 17.6109 36.0807C17.6016 36.2127 17.6288 36.3446 17.6895 36.4622C17.7502 36.5797 17.8421 36.6783 17.9551 36.7471C18.0681 36.8159 18.1979 36.8523 18.3302 36.8522C18.4444 36.8527 18.5571 36.8262 18.659 36.7747C18.761 36.7232 18.8493 36.6483 18.9166 36.5561C18.9239 36.5445 19.7169 35.4829 21.2812 35.0539C22.0901 34.8314 23.25 34.8502 24.381 35.1073C24.6973 35.1795 24.9905 35.2041 25.2751 35.2084C25.4094 35.5233 25.4614 35.8974 25.4686 36.0361C25.479 36.2203 25.5594 36.3936 25.6934 36.5203C25.8275 36.6471 26.0049 36.7178 26.1894 36.7179L26.2284 36.7164C26.419 36.7063 26.5979 36.6212 26.7259 36.4797C26.8539 36.3381 26.9207 36.1516 26.9117 35.961C26.8878 35.6245 26.8248 35.292 26.7239 34.9701C27.3898 34.7289 27.969 34.3519 28.5135 33.998C29.3398 33.4592 30.1212 32.9493 31.1424 32.9161C31.9975 32.8858 32.7024 32.9681 33.3828 33.0475C34.0674 33.127 34.7405 33.179 35.483 33.1357C35.6144 33.5011 35.6043 33.9893 35.5841 34.1525C35.5719 34.2542 35.5813 34.3574 35.6117 34.4552C35.6422 34.553 35.693 34.6433 35.7608 34.72C35.8286 34.7968 35.9118 34.8584 36.0051 34.9008C36.0984 34.9431 36.1995 34.9653 36.302 34.9658C36.4771 34.9655 36.6461 34.9016 36.7776 34.7861C36.9092 34.6705 36.9942 34.511 37.017 34.3374C37.0694 33.8637 37.0406 33.3845 36.9318 32.9204C38.2496 32.5708 39.4306 31.83 40.319 30.7957C41.0348 31.2386 41.871 31.4471 42.711 31.3922C42.9016 31.3792 43.0794 31.2912 43.2053 31.1475C43.3312 31.0037 43.3949 30.8159 43.3826 30.6252Z" fill="#EA596E"/>
</g>
</g>
</svg>
